<svg width="830" height="852" viewBox="0 0 830 852" fill="none" xmlns="http://www.w3.org/2000/svg">
<path d="M375.406 549.288L367.31 550.059L371.653 556.935L406.423 611.988L411.5 620.027L415.246 611.287L441.323 550.44L444.643 542.694L436.253 543.493L375.406 549.288Z" fill="white" stroke="black" stroke-width="10"/>
<path d="M462.331 543.493L454.235 544.264L458.578 551.14L493.348 606.193L498.425 614.232L502.171 605.492L528.248 544.645L531.568 536.899L523.179 537.698L462.331 543.493Z" fill="white" stroke="black" stroke-width="10"/>
<path d="M560.846 543.493L552.75 544.264L557.093 551.14L591.863 606.193L596.94 614.232L600.686 605.492L626.763 544.645L630.083 536.899L621.694 537.698L560.846 543.493Z" fill="white" stroke="black" stroke-width="10"/>
<path d="M665.156 531.903L657.447 532.637L661.289 539.361L696.059 600.209L701.246 609.287L705.056 599.55L731.134 532.907L734.096 525.337L726.004 526.108L665.156 531.903Z" fill="white" stroke="black" stroke-width="10"/>
<path d="M160.471 314.103C227.114 290.923 261.884 435.798 311.141 508.236L409.656 467.671L360.399 328.591C349.775 299.616 310.272 209.173 241.601 189.511C155.47 164.849 80.5906 217.482 38.7761 296.718C-0.958934 372.014 -13.3785 490.851 44.5715 516.928C93.829 539.094 122.533 486.331 117.009 453.183C111.214 418.413 93.8286 337.283 160.471 314.103Z" fill="#F8D82D" stroke="black" stroke-width="10"/>
<path d="M517.858 200.77C449.631 218.761 534.812 354.86 534.408 442.458L430.033 463.828L393.218 320.95C385.849 290.981 368.105 193.897 414.088 139.234C471.761 70.6735 563.27 72.5143 642.208 114.889C717.22 155.156 770.491 245.954 709.092 267.413C674.894 279.366 630.86 284.798 619.27 244.234C610.377 213.111 586.084 182.779 517.858 200.77Z" fill="#F8D82D" stroke="black" stroke-width="10"/>
<path d="M416.445 194.976C399.953 238.354 413.548 279.002 422.24 322.465L462.805 305.08C462.805 305.08 432.454 251.149 448.318 221.052C457.272 204.065 466.621 196.162 483.087 186.282C497.575 177.59 516.699 166 512.063 142.82C507.427 119.64 483.087 122.538 471.498 128.333C441.135 143.513 428.508 163.245 416.445 194.976Z" fill="#1F78FF" stroke="black" stroke-width="10"/>
<path d="M445.594 303.343C411.116 327.38 401.087 375.557 420.282 415.32C437.238 450.445 468.336 468.102 503.449 459.311C539.81 450.208 561.977 416.554 561.305 375.328C560.372 317.997 489.454 272.767 445.594 303.343Z" fill="white" stroke="black" stroke-width="10"/>
<path d="M474.395 357.235V293.49C501.438 293.49 556.105 310.296 558.423 377.518C560.741 444.74 503.37 457.682 474.395 455.75V386.21C490.64 392.669 504.634 369.527 488.883 357.235C483.714 353.202 477.293 355.304 474.395 357.235Z" fill="black"/>
<path d="M778.704 492.954C778.704 458.648 748.618 446.566 717.857 440.799C671.498 432.107 530.99 426.754 454.113 440.799C349.101 459.984 285.043 505.725 254.185 542.675C215.47 589.035 175.953 693.345 268.673 786.065C361.393 878.785 562.246 838.391 630.86 832.425C764.145 820.835 778.704 756.626 720.755 733.446C662.805 710.266 546.832 739.241 468.672 739.241C403.062 739.241 323.797 736.344 326.694 649.419C328.999 580.29 403.296 570.823 467.527 562.64L468.672 562.494C578.705 548.47 778.704 562.494 778.704 492.954Z" fill="#F8D82D" stroke="black" stroke-width="10"/>
<path d="M259.98 247.13C298.293 270.855 316.964 326.329 329.52 351.44L303.442 423.878C303.442 423.878 264.83 313.811 204.927 284.798C173.771 269.707 127.513 300.699 118.002 267.413C112.208 247.13 142.163 235.416 164.362 229.745C199.752 220.705 228.926 227.9 259.98 247.13Z" fill="#1F78FF" stroke="black" stroke-width="10"/>
<path d="M732.272 357.235C704.645 374.65 697.502 409.39 711.99 438.365C736.872 442.851 751.052 446.972 778.633 470.238C794.086 463.477 825.531 439.259 824.993 409.39C824.245 367.852 767.418 335.081 732.272 357.235Z" fill="#F24727" stroke="black" stroke-width="10"/>
<path d="M335.489 332.318C301.011 356.355 290.982 404.532 310.177 444.295C327.133 479.42 358.231 497.077 393.344 488.286C429.705 479.183 451.872 445.529 451.2 404.303C450.267 346.972 379.349 301.741 335.489 332.318Z" fill="white" stroke="black" stroke-width="10"/>
<path d="M367.188 389.108V325.363C394.231 325.363 448.897 342.168 451.215 409.39C453.533 476.612 396.163 489.554 367.188 487.623V418.083C383.433 424.541 397.427 401.399 381.675 389.108C376.506 385.074 370.085 387.176 367.188 389.108Z" fill="black"/>
<path d="M749.658 371.723C757.172 369.218 764.953 370.769 770.343 376.573C776.922 383.658 763.947 389.328 761.651 399.753C759.446 409.76 771.793 418.585 764.548 425.83C757.303 433.076 746.534 429.255 738.471 422.933C730.023 416.309 728.486 407.512 729.778 396.855C731.331 384.048 739.031 375.265 749.658 371.723Z" fill="white" stroke="black" stroke-width="10"/>
</svg>
