<svg width="146" height="149" viewBox="0 0 146 149" fill="none" xmlns="http://www.w3.org/2000/svg">
<path d="M65.6004 99.1763L69.7163 105.693C70.7913 107.395 73.3348 107.193 74.1278 105.343L77.2148 98.1401C77.9625 96.3954 76.5695 94.4866 74.6799 94.6666L67.4771 95.3525C65.6218 95.5292 64.6052 97.6006 65.6004 99.1763Z" fill="white" stroke="black" stroke-width="3"/>
<path d="M80.6004 98.1763L84.7163 104.693C85.7913 106.395 88.3348 106.193 89.1278 104.343L92.2148 97.1401C92.9625 95.3954 91.5695 93.4866 89.6799 93.6666L82.4771 94.3525C80.6218 94.5292 79.6052 96.6006 80.6004 98.1763Z" fill="white" stroke="black" stroke-width="3"/>
<path d="M97.6004 98.1763L101.716 104.693C102.791 106.395 105.335 106.193 106.128 104.343L109.215 97.1401C109.963 95.3954 108.57 93.4866 106.68 93.6666L99.4771 94.3525C97.6218 94.5292 96.6052 96.6006 97.6004 98.1763Z" fill="white" stroke="black" stroke-width="3"/>
<path d="M115.466 96.089L119.66 103.429C120.702 105.253 123.393 105.056 124.159 103.099L127.304 95.0606L125.938 94.526L127.304 95.0606C127.983 93.3256 126.594 91.4843 124.739 91.6609L117.4 92.3599C115.592 92.532 114.565 94.5126 115.466 96.089Z" fill="white" stroke="black" stroke-width="3"/>
<path d="M28.8285 55.557C40.3285 51.557 46.3285 76.557 54.8285 89.057L71.8286 82.057L63.3285 58.057C61.4952 53.057 54.6786 37.4501 42.8285 34.057C27.9655 29.8013 15.0441 38.8839 7.82849 52.557C0.971711 65.5502 -1.17144 86.057 8.82856 90.557C17.3286 94.382 22.2818 85.2771 21.3285 79.557C20.3285 73.557 17.3285 59.557 28.8285 55.557Z" fill="#F8D82D" stroke="black" stroke-width="3"/>
<path d="M90.5 36C78.7267 39.1046 93.4257 62.5901 93.3559 77.7062L75.3447 81.3939L68.9919 56.7385C67.7202 51.567 64.6584 34.8139 72.5932 25.3812C82.5454 13.5502 98.3364 13.8678 111.958 21.18C124.902 28.1286 134.095 43.7971 123.5 47.5001C117.599 49.5626 110 50.5 108 43.5002C106.465 38.1295 102.273 32.8954 90.5 36Z" fill="#F8D82D" stroke="black" stroke-width="3"/>
<path d="M73 35C70.1542 42.4854 72.5001 49.4999 74.0001 56.9999L81 54C81 54 75.7625 44.6935 78.5 39.4999C80.0451 36.5685 81.6585 35.2048 84.5 33.4999C87 31.9999 90.3 29.9999 89.5 25.9999C88.7 21.9999 84.5 22.5001 82.5 23.5C77.2605 26.1195 75.0817 29.5245 73 35Z" fill="#1F78FF" stroke="black" stroke-width="3"/>
<path d="M78.03 53.7003C72.0804 57.848 70.3498 66.1616 73.6622 73.0232C76.5882 79.0845 81.9544 82.1314 88.0137 80.6144C94.2883 79.0436 98.1133 73.2362 97.9974 66.1222C97.8363 56.2289 85.5986 48.4238 78.03 53.7003Z" fill="white" stroke="black" stroke-width="3"/>
<path d="M83 63V52C87.6667 52 97.1 54.9 97.5 66.5C97.9 78.1 88 80.3333 83 80V68C85.8033 69.1145 88.2181 65.121 85.5 63C84.6081 62.304 83.5 62.6667 83 63Z" fill="black"/>
<path d="M135.512 86.42C135.512 80.5 130.321 78.4152 125.012 77.42C117.013 75.92 92.7662 74.9963 79.5 77.4199C61.3789 80.7306 50.3248 88.6238 45 95C38.3192 103 31.5001 121 47.5001 137C63.5001 153 98.1597 146.03 110 145C133 143 135.512 131.92 125.512 127.92C115.512 123.92 95.4999 128.92 82.0124 128.92C70.6906 128.92 57.0124 128.42 57.5124 113.42C57.91 101.491 70.7309 99.8574 81.8149 98.4451L82.0124 98.42C101 96 135.512 98.42 135.512 86.42Z" fill="#F8D82D" stroke="black" stroke-width="3"/>
<path d="M46 44C52.6113 48.0939 55.8333 57.6666 58 62L53.5 74.5C53.5 74.5 46.837 55.5066 36.5 50.5C31.1235 47.896 23.1411 53.244 21.5 47.5C20.5 44 25.6692 41.9786 29.5 41C35.6069 39.4399 40.6412 40.6816 46 44Z" fill="#1F78FF" stroke="black" stroke-width="3"/>
<path d="M127.5 63C122.732 66.0052 121.5 72 124 77C128.294 77.7741 130.741 78.4852 135.5 82.5C138.167 81.3333 143.593 77.1543 143.5 72C143.371 64.8321 133.565 59.1771 127.5 63Z" fill="#F24727" stroke="black" stroke-width="3"/>
<path d="M59.03 58.7003C53.0804 62.848 51.3498 71.1616 54.6622 78.0232C57.5882 84.0845 62.9544 87.1314 69.0137 85.6144C75.2883 84.0436 79.1133 78.2362 78.9974 71.1222C78.8363 61.2289 66.5986 53.4238 59.03 58.7003Z" fill="white" stroke="black" stroke-width="3"/>
<path d="M64.5 68.5V57.5C69.1667 57.5 78.6 60.4 79 72C79.4 83.6 69.5 85.8333 64.5 85.5V73.5C67.3033 74.6145 69.7181 70.621 67 68.5C66.1081 67.804 65 68.1667 64.5 68.5Z" fill="black"/>
<path d="M130.5 65.5C131.797 65.0678 133.139 65.3353 134.07 66.337C135.205 67.5595 132.966 68.538 132.57 70.337C132.189 72.0637 134.32 73.5867 133.07 74.837C131.819 76.0872 129.961 75.428 128.57 74.337C127.112 73.194 126.847 71.6759 127.07 69.837C127.337 67.6268 128.666 66.1113 130.5 65.5Z" fill="white" stroke="black" stroke-width="3"/>
</svg>
